{
	"asset":{
		"generator":"Khronos glTF Blender I/O v4.2.60",
		"version":"2.0"
	},
	"scene":0,
	"scenes":[
		{
			"name":"Scene",
			"nodes":[
				0,
				1,
				2,
				3,
				4,
				5,
				6,
				7
			]
		}
	],
	"nodes":[
		{
			"mesh":0,
			"name":"Skap"
		},
		{
			"mesh":1,
			"name":"Cube7",
			"translation":[
				1.2263157367706299,
				-0.08086860179901123,
				-0.4111373722553253
			]
		},
		{
			"mesh":2,
			"name":"Cube6",
			"translation":[
				1.2263157367706299,
				-0.08086860179901123,
				-0.4111373722553253
			]
		},
		{
			"mesh":3,
			"name":"Cube5",
			"translation":[
				1.2263157367706299,
				0.839114248752594,
				-0.4111373722553253
			]
		},
		{
			"mesh":4,
			"name":"Cube4",
			"translation":[
				1.2263157367706299,
				1.3265966176986694,
				-0.4111373722553253
			]
		},
		{
			"mesh":5,
			"name":"Cube3",
			"translation":[
				1.2263157367706299,
				1.8234655857086182,
				-0.4111373722553253
			]
		},
		{
			"mesh":6,
			"name":"Cube2",
			"translation":[
				1.2263157367706299,
				2.3568129539489746,
				-0.4111373722553253
			]
		},
		{
			"mesh":7,
			"name":"Cube1",
			"translation":[
				1.2263157367706299,
				2.832672119140625,
				-0.4111373722553253
			]
		}
	],
	"materials":[
		{
			"doubleSided":true,
			"name":"Material",
			"pbrMetallicRoughness":{
				"baseColorFactor":[
					0.5456162691116333,
					0.8001724481582642,
					0.0655069425702095,
					1
				],
				"metallicFactor":0,
				"roughnessFactor":0.5
			}
		},
		{
			"doubleSided":true,
			"name":"Material.002",
			"pbrMetallicRoughness":{
				"baseColorFactor":[
					0.8000229597091675,
					0.02317478321492672,
					0.02317478321492672,
					1
				],
				"metallicFactor":0,
				"roughnessFactor":0.5
			}
		}
	],
	"meshes":[
		{
			"name":"Cube",
			"primitives":[
				{
					"attributes":{
						"POSITION":0,
						"NORMAL":1,
						"TEXCOORD_0":2
					},
					"indices":3,
					"material":0
				}
			]
		},
		{
			"name":"Cube.001",
			"primitives":[
				{
					"attributes":{
						"POSITION":4,
						"NORMAL":5,
						"TEXCOORD_0":6
					},
					"indices":7,
					"material":1
				}
			]
		},
		{
			"name":"Cube.002",
			"primitives":[
				{
					"attributes":{
						"POSITION":8,
						"NORMAL":9,
						"TEXCOORD_0":10
					},
					"indices":7,
					"material":1
				}
			]
		},
		{
			"name":"Cube.003",
			"primitives":[
				{
					"attributes":{
						"POSITION":11,
						"NORMAL":12,
						"TEXCOORD_0":13
					},
					"indices":7,
					"material":1
				}
			]
		},
		{
			"name":"Cube.004",
			"primitives":[
				{
					"attributes":{
						"POSITION":14,
						"NORMAL":15,
						"TEXCOORD_0":16
					},
					"indices":7,
					"material":1
				}
			]
		},
		{
			"name":"Cube.005",
			"primitives":[
				{
					"attributes":{
						"POSITION":17,
						"NORMAL":18,
						"TEXCOORD_0":19
					},
					"indices":7,
					"material":1
				}
			]
		},
		{
			"name":"Cube.006",
			"primitives":[
				{
					"attributes":{
						"POSITION":20,
						"NORMAL":21,
						"TEXCOORD_0":22
					},
					"indices":7,
					"material":1
				}
			]
		},
		{
			"name":"Cube.007",
			"primitives":[
				{
					"attributes":{
						"POSITION":23,
						"NORMAL":24,
						"TEXCOORD_0":25
					},
					"indices":7,
					"material":1
				}
			]
		}
	],
	"accessors":[
		{
			"bufferView":0,
			"componentType":5126,
			"count":48,
			"max":[
				1,
				3.891193389892578,
				1
			],
			"min":[
				-1,
				0.08186200261116028,
				-1
			],
			"type":"VEC3"
		},
		{
			"bufferView":1,
			"componentType":5126,
			"count":48,
			"type":"VEC3"
		},
		{
			"bufferView":2,
			"componentType":5126,
			"count":48,
			"type":"VEC2"
		},
		{
			"bufferView":3,
			"componentType":5123,
			"count":84,
			"type":"SCALAR"
		},
		{
			"bufferView":4,
			"componentType":5126,
			"count":24,
			"max":[
				-0.24265408515930176,
				0.7806299924850464,
				1.1846779584884644
			],
			"min":[
				-2.2426540851593018,
				0.3690217435359955,
				-0.34626147150993347
			],
			"type":"VEC3"
		},
		{
			"bufferView":5,
			"componentType":5126,
			"count":24,
			"type":"VEC3"
		},
		{
			"bufferView":6,
			"componentType":5126,
			"count":24,
			"type":"VEC2"
		},
		{
			"bufferView":7,
			"componentType":5123,
			"count":36,
			"type":"SCALAR"
		},
		{
			"bufferView":8,
			"componentType":5126,
			"count":24,
			"max":[
				-0.24265408515930176,
				1.2428950071334839,
				1.1846779584884644
			],
			"min":[
				-2.2426540851593018,
				0.8312867879867554,
				-0.34626147150993347
			],
			"type":"VEC3"
		},
		{
			"bufferView":9,
			"componentType":5126,
			"count":24,
			"type":"VEC3"
		},
		{
			"bufferView":10,
			"componentType":5126,
			"count":24,
			"type":"VEC2"
		},
		{
			"bufferView":11,
			"componentType":5126,
			"count":24,
			"max":[
				-0.24265408515930176,
				0.7806299924850464,
				1.1846779584884644
			],
			"min":[
				-2.2426540851593018,
				0.3690217435359955,
				-0.34626147150993347
			],
			"type":"VEC3"
		},
		{
			"bufferView":12,
			"componentType":5126,
			"count":24,
			"type":"VEC3"
		},
		{
			"bufferView":13,
			"componentType":5126,
			"count":24,
			"type":"VEC2"
		},
		{
			"bufferView":14,
			"componentType":5126,
			"count":24,
			"max":[
				-0.24265408515930176,
				0.7806299924850464,
				1.1846779584884644
			],
			"min":[
				-2.2426540851593018,
				0.3690217435359955,
				-0.34626147150993347
			],
			"type":"VEC3"
		},
		{
			"bufferView":15,
			"componentType":5126,
			"count":24,
			"type":"VEC3"
		},
		{
			"bufferView":16,
			"componentType":5126,
			"count":24,
			"type":"VEC2"
		},
		{
			"bufferView":17,
			"componentType":5126,
			"count":24,
			"max":[
				-0.24265408515930176,
				0.7806299924850464,
				1.1846779584884644
			],
			"min":[
				-2.2426540851593018,
				0.3690217435359955,
				-0.34626147150993347
			],
			"type":"VEC3"
		},
		{
			"bufferView":18,
			"componentType":5126,
			"count":24,
			"type":"VEC3"
		},
		{
			"bufferView":19,
			"componentType":5126,
			"count":24,
			"type":"VEC2"
		},
		{
			"bufferView":20,
			"componentType":5126,
			"count":24,
			"max":[
				-0.24265408515930176,
				0.7806299924850464,
				1.1846779584884644
			],
			"min":[
				-2.2426540851593018,
				0.3690217435359955,
				-0.34626147150993347
			],
			"type":"VEC3"
		},
		{
			"bufferView":21,
			"componentType":5126,
			"count":24,
			"type":"VEC3"
		},
		{
			"bufferView":22,
			"componentType":5126,
			"count":24,
			"type":"VEC2"
		},
		{
			"bufferView":23,
			"componentType":5126,
			"count":24,
			"max":[
				-0.24265408515930176,
				0.7806299924850464,
				1.1846779584884644
			],
			"min":[
				-2.2426540851593018,
				0.3690217435359955,
				-0.34626147150993347
			],
			"type":"VEC3"
		},
		{
			"bufferView":24,
			"componentType":5126,
			"count":24,
			"type":"VEC3"
		},
		{
			"bufferView":25,
			"componentType":5126,
			"count":24,
			"type":"VEC2"
		}
	],
	"bufferViews":[
		{
			"buffer":0,
			"byteLength":576,
			"byteOffset":0,
			"target":34962
		},
		{
			"buffer":0,
			"byteLength":576,
			"byteOffset":576,
			"target":34962
		},
		{
			"buffer":0,
			"byteLength":384,
			"byteOffset":1152,
			"target":34962
		},
		{
			"buffer":0,
			"byteLength":168,
			"byteOffset":1536,
			"target":34963
		},
		{
			"buffer":0,
			"byteLength":288,
			"byteOffset":1704,
			"target":34962
		},
		{
			"buffer":0,
			"byteLength":288,
			"byteOffset":1992,
			"target":34962
		},
		{
			"buffer":0,
			"byteLength":192,
			"byteOffset":2280,
			"target":34962
		},
		{
			"buffer":0,
			"byteLength":72,
			"byteOffset":2472,
			"target":34963
		},
		{
			"buffer":0,
			"byteLength":288,
			"byteOffset":2544,
			"target":34962
		},
		{
			"buffer":0,
			"byteLength":288,
			"byteOffset":2832,
			"target":34962
		},
		{
			"buffer":0,
			"byteLength":192,
			"byteOffset":3120,
			"target":34962
		},
		{
			"buffer":0,
			"byteLength":288,
			"byteOffset":3312,
			"target":34962
		},
		{
			"buffer":0,
			"byteLength":288,
			"byteOffset":3600,
			"target":34962
		},
		{
			"buffer":0,
			"byteLength":192,
			"byteOffset":3888,
			"target":34962
		},
		{
			"buffer":0,
			"byteLength":288,
			"byteOffset":4080,
			"target":34962
		},
		{
			"buffer":0,
			"byteLength":288,
			"byteOffset":4368,
			"target":34962
		},
		{
			"buffer":0,
			"byteLength":192,
			"byteOffset":4656,
			"target":34962
		},
		{
			"buffer":0,
			"byteLength":288,
			"byteOffset":4848,
			"target":34962
		},
		{
			"buffer":0,
			"byteLength":288,
			"byteOffset":5136,
			"target":34962
		},
		{
			"buffer":0,
			"byteLength":192,
			"byteOffset":5424,
			"target":34962
		},
		{
			"buffer":0,
			"byteLength":288,
			"byteOffset":5616,
			"target":34962
		},
		{
			"buffer":0,
			"byteLength":288,
			"byteOffset":5904,
			"target":34962
		},
		{
			"buffer":0,
			"byteLength":192,
			"byteOffset":6192,
			"target":34962
		},
		{
			"buffer":0,
			"byteLength":288,
			"byteOffset":6384,
			"target":34962
		},
		{
			"buffer":0,
			"byteLength":288,
			"byteOffset":6672,
			"target":34962
		},
		{
			"buffer":0,
			"byteLength":192,
			"byteOffset":6960,
			"target":34962
		}
	],
	"buffers":[
		{
			"byteLength":7152,
			"uri":"untitled.bin"
		}
	]
}
